<svg version="1.1" xmlns="http://www.w3.org/2000/svg" xmlns:xlink="http://www.w3.org/1999/xlink" width="100" height="100" viewBox="0,0,100,100"><defs><linearGradient x1="208.00303" y1="180.00015" x2="271.99737" y2="180.00015" gradientUnits="userSpaceOnUse" id="color-1"><stop offset="0" stop-color="#ffc533"/><stop offset="1" stop-color="#ff7b00"/></linearGradient><linearGradient x1="208.00303" y1="180.00016" x2="271.99738" y2="180.00016" gradientUnits="userSpaceOnUse" id="color-2"><stop offset="0" stop-color="#ffc533"/><stop offset="1" stop-color="#ff7b00"/></linearGradient><linearGradient x1="208.00303" y1="180.00016" x2="271.99738" y2="180.00016" gradientUnits="userSpaceOnUse" id="color-3"><stop offset="0" stop-color="#ffc533"/><stop offset="1" stop-color="#ff7b00"/></linearGradient><linearGradient x1="208.00303" y1="180.00016" x2="271.99738" y2="180.00016" gradientUnits="userSpaceOnUse" id="color-4"><stop offset="0" stop-color="#ffc533"/><stop offset="1" stop-color="#ff7b00"/></linearGradient></defs><g transform="translate(-190,-130)"><g data-paper-data="{&quot;isPaintingLayer&quot;:true}" fill-rule="nonzero" stroke-linejoin="miter" stroke-miterlimit="10" stroke-dasharray="" stroke-dashoffset="0" style="mix-blend-mode: normal"><path d="M208.00303,211.99731v-63.99435h63.99435v63.99435z" fill="url(#color-1)" stroke="#000000" stroke-width="0" stroke-linecap="butt"/><path d="" fill="none" stroke-opacity="0.4" stroke="#ffffff" stroke-width="0.5" stroke-linecap="square"/><path d="" fill-opacity="0.12157" fill="#ffffff" stroke-opacity="0.10196" stroke="#ffffff" stroke-width="0" stroke-linecap="square"/><path d="" fill="none" stroke-opacity="0.4" stroke="#ffffff" stroke-width="0.5" stroke-linecap="square"/><path d="" fill-opacity="0.12157" fill="#ffffff" stroke-opacity="0.10196" stroke="#ffffff" stroke-width="0" stroke-linecap="square"/><path d="" fill="none" stroke-opacity="0.4" stroke="#ffffff" stroke-width="0.5" stroke-linecap="square"/><path d="" fill-opacity="0.12157" fill="#ffffff" stroke-opacity="0.10196" stroke="#ffffff" stroke-width="0" stroke-linecap="square"/><path d="" fill="none" stroke-opacity="0.4" stroke="#ffffff" stroke-width="0.5" stroke-linecap="square"/><path d="" fill-opacity="0.12157" fill="#ffffff" stroke-opacity="0.10196" stroke="#ffffff" stroke-width="0" stroke-linecap="square"/><g fill-opacity="0.2" fill="#ffffff" stroke="#000000" stroke-width="0" stroke-linecap="butt"><path d="M219.68491,210.91777c0.16189,-0.44869 0.41728,-0.83174 0.76613,-1.14914c0.34673,-0.3276 0.75974,-0.54131 1.23904,-0.64115l7.89306,-1.64423c0.4793,-0.09984 0.93819,-0.06775 1.3767,0.09627c0.44657,0.1517 0.83366,0.40091 1.16126,0.74764c0.32547,0.33653 0.53919,0.74955 0.64115,1.23904l0.50643,2.43112h-2.77712l-0.36226,-1.73899c-0.0085,-0.04078 -0.02506,-0.06925 -0.04971,-0.08541c-0.02465,-0.01615 -0.05226,-0.02104 -0.08286,-0.01467l-7.63301,1.59006c-0.04078,0.0085 -0.06926,0.02507 -0.08541,0.04972c-0.01615,0.02465 -0.01997,0.05736 -0.01147,0.09815l0.02107,0.10114h-2.72855c-0.03735,-0.37629 0.00449,-0.73615 0.12554,-1.07955zM233.22395,206.72481l2.78399,-0.57994l3.63492,5.85245h-3.1541zM242.03482,204.8894l2.49336,-0.5194l4.74625,7.61396l1.29592,-8.87262l2.79929,-0.58313l-1.36991,9.46911h-5.90147l-1.91689,-3.08615l-0.45083,3.08615h-2.7339zM255.13983,202.15943l2.79929,-0.58313l9.5908,7.57836l-1.9119,-9.17798l2.67692,-0.55764l2.62023,12.57828h-4.151l-8.17118,-6.43945l1.34143,6.43945h-2.74522zM270.3662,198.98757l1.63118,-0.33979v8.1702z"/><path d="M208.21947,180.01274c0.10197,0.48949 0.072,0.95859 -0.0899,1.40729c-0.03743,0.10005 -0.07961,0.19721 -0.12654,0.29149v-2.7378zM214.56515,181.43604l-6.56212,-10.59752v-1.76146l1.81789,-0.3787l4.73096,7.61715l1.29593,-8.87262l2.49335,-0.5194l4.74625,7.61397l1.29593,-8.87262l2.79928,-0.58313l-2.04745,14.15247l-2.04975,0.42699l-5.09106,-8.19651l-1.39472,9.54758zM231.6932,177.86803l-2.74038,-13.1551l2.79929,-0.58313l9.5908,7.57836l-1.9119,-9.17798l2.67692,-0.55764l2.74039,13.1551l-2.79928,0.58313l-9.64306,-7.59939l1.91826,9.20857zM246.91959,174.69617l-2.74039,-13.1551l12.13024,-2.52689l0.55126,2.64632l-9.45332,1.96926l0.54171,2.60043l7.60243,-1.58369l0.55445,2.66161l-7.60242,1.58369l0.54171,2.60043l9.45331,-1.96925l0.55127,2.64632zM271.21987,169.6341l-4.63337,-3.63948l-3.99381,0.84008l0.91771,4.40543l-2.63106,0.54804l-2.73401,-13.12451l10.49349,-2.18594c0.48949,-0.10197 0.95752,-0.0771 1.4041,0.07461c0.44657,0.1517 0.83472,0.40601 1.16445,0.76294c0.32759,0.34673 0.54025,0.75465 0.63797,1.22375l0.15203,0.72981v4.97323c-0.08771,0.10849 -0.18367,0.21196 -0.28789,0.31043c-0.34885,0.31741 -0.76802,0.52708 -1.25751,0.62905l-0.4151,0.08732l1.9605,1.53664v2.66663zM262.14529,164.1507l7.63302,-1.59007c0.04079,-0.0085 0.06417,-0.024 0.07012,-0.04652c0.01615,-0.02465 0.02209,-0.04716 0.01784,-0.06756l-0.67235,-3.22759c-0.00849,-0.04078 -0.02506,-0.06925 -0.04971,-0.0854c-0.01444,-0.01828 -0.04206,-0.02316 -0.08285,-0.01466l-7.63301,1.59006c-0.04079,0.0085 -0.06926,0.02506 -0.08541,0.04971c-0.00594,0.02253 -0.00466,0.05418 0.00383,0.09497l0.67235,3.2276c0.00425,0.0204 0.0136,0.03973 0.02805,0.058c0.02465,0.01615 0.05736,0.01997 0.09815,0.01147z"/></g><path d="M211.34072,203.59272c-0.4793,0.09984 -0.94223,0.07392 -1.3888,-0.07778c-0.44869,-0.16189 -0.83578,-0.41111 -1.16125,-0.74764c-0.31741,-0.34885 -0.52708,-0.76802 -0.62905,-1.25751l-0.15859,-0.76127v-10.11147c0.18613,-0.08877 0.38523,-0.15524 0.59732,-0.19942l7.89306,-1.64423c0.4793,-0.09984 0.93819,-0.06775 1.3767,0.09627c0.44657,0.1517 0.83366,0.40091 1.16126,0.74764c0.32547,0.33653 0.53919,0.74955 0.64115,1.23904l1.64423,7.89306c0.10197,0.48949 0.072,0.95859 -0.08989,1.40729c-0.16402,0.4385 -0.41939,0.82155 -0.76612,1.14914c-0.33866,0.31528 -0.74763,0.52283 -1.22692,0.62268zM210.91184,200.92093l7.63303,-1.59006c0.0306,-0.00637 0.05396,-0.02187 0.07011,-0.04653c0.01615,-0.02465 0.02104,-0.05225 0.01466,-0.08285l-1.59006,-7.63301c-0.0085,-0.04078 -0.02506,-0.06925 -0.04971,-0.08541c-0.02465,-0.01615 -0.05226,-0.02104 -0.08286,-0.01467l-7.63301,1.59006c-0.04078,0.0085 -0.06926,0.02507 -0.08541,0.04972c-0.01615,0.02465 -0.01997,0.05736 -0.01147,0.09815l1.59006,7.63303c0.00637,0.0306 0.02187,0.05397 0.04653,0.07012c0.02465,0.01615 0.05737,0.01997 0.09815,0.01147zM227.66244,200.19269l-7.52822,-12.15773l2.78399,-0.57994l4.73096,7.61715l1.29592,-8.87262l2.49336,-0.5194l4.74625,7.61396l1.29592,-8.87262l2.79929,-0.58313l-2.04746,14.15248l-2.04975,0.42699l-5.09105,-8.19651l-1.39472,9.54758zM244.79048,196.62468l-2.74038,-13.1551l2.79929,-0.58313l9.5908,7.57836l-1.9119,-9.17798l2.67692,-0.55764l2.74039,13.1551l-2.79928,0.58313l-9.64306,-7.5994l1.91827,9.20857zM260.01686,193.45283l-2.74039,-13.15511l12.13023,-2.52689l0.55127,2.64632l-9.45332,1.96925l0.5417,2.60043l7.60243,-1.58369l0.55445,2.66162l-7.60242,1.58369l0.54171,2.60043l9.45332,-1.96925l0.40154,1.92762v0.74988zM271.24262,177.42031l0.75477,-0.15723v3.78047z" fill="url(#color-2)" stroke-opacity="0.4" stroke="#ffffff" stroke-width="1" stroke-linecap="butt"/><path d="M211.34072,203.59272c-0.4793,0.09984 -0.94223,0.07392 -1.3888,-0.07778c-0.44869,-0.16189 -0.83578,-0.41111 -1.16125,-0.74764c-0.31741,-0.34885 -0.52708,-0.76802 -0.62905,-1.25751l-0.15859,-0.76127v-10.11147c0.18613,-0.08877 0.38523,-0.15524 0.59732,-0.19942l7.89306,-1.64423c0.4793,-0.09984 0.93819,-0.06775 1.3767,0.09627c0.44657,0.1517 0.83366,0.40091 1.16126,0.74764c0.32547,0.33653 0.53919,0.74955 0.64115,1.23904l1.64423,7.89306c0.10197,0.48949 0.072,0.95859 -0.08989,1.40729c-0.16402,0.4385 -0.41939,0.82155 -0.76612,1.14914c-0.33866,0.31528 -0.74763,0.52283 -1.22692,0.62268zM210.91184,200.92093l7.63303,-1.59006c0.0306,-0.00637 0.05396,-0.02187 0.07011,-0.04653c0.01615,-0.02465 0.02104,-0.05225 0.01466,-0.08285l-1.59006,-7.63301c-0.0085,-0.04078 -0.02506,-0.06925 -0.04971,-0.08541c-0.02465,-0.01615 -0.05226,-0.02104 -0.08286,-0.01467l-7.63301,1.59006c-0.04078,0.0085 -0.06926,0.02507 -0.08541,0.04972c-0.01615,0.02465 -0.01997,0.05736 -0.01147,0.09815l1.59006,7.63303c0.00637,0.0306 0.02187,0.05397 0.04653,0.07012c0.02465,0.01615 0.05737,0.01997 0.09815,0.01147zM227.66244,200.19269l-7.52822,-12.15773l2.78399,-0.57994l4.73096,7.61715l1.29592,-8.87262l2.49336,-0.5194l4.74625,7.61396l1.29592,-8.87262l2.79929,-0.58313l-2.04746,14.15248l-2.04975,0.42699l-5.09105,-8.19651l-1.39472,9.54758zM244.79048,196.62468l-2.74038,-13.1551l2.79929,-0.58313l9.5908,7.57836l-1.9119,-9.17798l2.67692,-0.55764l2.74039,13.1551l-2.79928,0.58313l-9.64306,-7.5994l1.91827,9.20857zM260.01686,193.45283l-2.74039,-13.15511l12.13023,-2.52689l0.55127,2.64632l-9.45332,1.96925l0.5417,2.60043l7.60243,-1.58369l0.55445,2.66162l-7.60242,1.58369l0.54171,2.60043l9.45332,-1.96925l0.40154,1.92762v0.74988zM271.24262,177.42031l0.75477,-0.15723v3.78047z" fill="url(#color-3)" stroke="#000000" stroke-width="0" stroke-linecap="butt"/><path d="M209.99767,155.8476l1.14578,-7.84463h2.71635l-1.81437,12.54135l-2.04975,0.42699l-1.99265,-3.20812v-5.1154zM218.60346,159.17817l-2.32794,-11.1752h5.63049l6.34716,5.01533l-1.04476,-5.01533h2.79308l1.75709,8.43481l-2.79928,0.58313l-9.64306,-7.59939l1.91826,9.20857zM233.82985,156.00631l-1.6672,-8.00334h10.72541l0.12817,0.61528l-7.60242,1.58369l0.54171,2.60043l9.45331,-1.96925l0.55127,2.64632zM258.13013,150.94424l-3.74449,-2.94127h4.37825l1.96287,1.5385l0.17207,0.82602zM249.50296,148.14484l0.91771,4.40543l-2.63106,0.54804l-1.06143,-5.09534h3.44924z" fill="none" stroke-opacity="0.4" stroke="#ffffff" stroke-width="1" stroke-linecap="butt"/><path d="M209.99767,155.8476l1.14578,-7.84463h2.71635l-1.81437,12.54135l-2.04975,0.42699l-1.99265,-3.20812v-5.1154zM218.60346,159.17817l-2.32794,-11.1752h5.63049l6.34716,5.01533l-1.04476,-5.01533h2.79308l1.75709,8.43481l-2.79928,0.58313l-9.64306,-7.59939l1.91826,9.20857zM233.82985,156.00631l-1.6672,-8.00334h10.72541l0.12817,0.61528l-7.60242,1.58369l0.54171,2.60043l9.45331,-1.96925l0.55127,2.64632zM258.13013,150.94424l-3.74449,-2.94127h4.37825l1.96287,1.5385l0.17207,0.82602zM249.50296,148.14484l0.91771,4.40543l-2.63106,0.54804l-1.06143,-5.09534h3.44924z" fill="url(#color-4)" stroke="#000000" stroke-width="0" stroke-linecap="butt"/><path d="M223.12841,166.0307h13.78418l8.27003,9.77578l7.35223,-9.77578h5.51294v19.55154h-5.51294v-11.55297l-7.35223,8.88717l-9.18905,-10.5597v11.44829c0,5.89029 -4.77528,10.66437 -10.66437,10.66437h-0.36274h-5.51417v-5.33159h5.51417h0.18138c2.94455,0 5.33159,-2.38824 5.33159,-5.33279v-12.44156h-7.351z" fill="#ffffff" stroke="none" stroke-width="1" stroke-linecap="butt"/><path d="M190,230v-100h100v100z" fill="none" stroke="#000000" stroke-width="0" stroke-linecap="butt"/></g></g></svg>