<svg version="1.1" xmlns="http://www.w3.org/2000/svg" xmlns:xlink="http://www.w3.org/1999/xlink" width="100" height="100" viewBox="0,0,100,100"><defs><linearGradient x1="239.99996" y1="211.99727" x2="239.99996" y2="199.60292" gradientUnits="userSpaceOnUse" id="color-1"><stop offset="0" stop-color="#000000" stop-opacity="0.03922"/><stop offset="1" stop-color="#000000" stop-opacity="0"/></linearGradient><linearGradient x1="271.99723" y1="180.00007" x2="259.6029" y2="180.00007" gradientUnits="userSpaceOnUse" id="color-2"><stop offset="0" stop-color="#000000" stop-opacity="0.03922"/><stop offset="1" stop-color="#000000" stop-opacity="0"/></linearGradient><linearGradient x1="240.00004" y1="148.00276" x2="240.00005" y2="160.39711" gradientUnits="userSpaceOnUse" id="color-3"><stop offset="0" stop-color="#000000" stop-opacity="0.03922"/><stop offset="1" stop-color="#000000" stop-opacity="0"/></linearGradient><linearGradient x1="208.00283" y1="179.99999" x2="220.39718" y2="179.99999" gradientUnits="userSpaceOnUse" id="color-4"><stop offset="0" stop-color="#000000" stop-opacity="0.03922"/><stop offset="1" stop-color="#000000" stop-opacity="0"/></linearGradient><linearGradient x1="240.61505" y1="174.91688" x2="258.88424" y2="174.91688" gradientUnits="userSpaceOnUse" id="color-5"><stop offset="0" stop-color="#cc9e29"/><stop offset="1" stop-color="#b36b00"/></linearGradient><linearGradient x1="239.96066" y1="180.00001" x2="258.88424" y2="180.00001" gradientUnits="userSpaceOnUse" id="color-6"><stop offset="0" stop-color="#ffc533"/><stop offset="1" stop-color="#e68a00"/></linearGradient><linearGradient x1="221.11579" y1="174.91688" x2="239.38498" y2="174.91688" gradientUnits="userSpaceOnUse" id="color-7"><stop offset="0" stop-color="#b36b00"/><stop offset="1" stop-color="#cc9e29"/></linearGradient><linearGradient x1="221.11579" y1="180.00001" x2="240.03937" y2="180.00001" gradientUnits="userSpaceOnUse" id="color-8"><stop offset="0" stop-color="#e68a00"/><stop offset="1" stop-color="#ffc533"/></linearGradient><linearGradient x1="236.19191" y1="183.80211" x2="240.01883" y2="183.80211" gradientUnits="userSpaceOnUse" id="color-9"><stop offset="0" stop-color="#00a3ff"/><stop offset="1" stop-color="#201ea5"/></linearGradient><linearGradient x1="239.98119" y1="183.80211" x2="243.80811" y2="183.80211" gradientUnits="userSpaceOnUse" id="color-10"><stop offset="0" stop-color="#0052cc"/><stop offset="1" stop-color="#33b4ff"/></linearGradient><linearGradient x1="236.19191" y1="188.84737" x2="240.01883" y2="188.84737" gradientUnits="userSpaceOnUse" id="color-11"><stop offset="0" stop-color="#33b4ff"/><stop offset="1" stop-color="#0052cc"/></linearGradient><linearGradient x1="239.98119" y1="188.84737" x2="243.80811" y2="188.84737" gradientUnits="userSpaceOnUse" id="color-12"><stop offset="0" stop-color="#33b4ff"/><stop offset="1" stop-color="#0052cc"/></linearGradient><linearGradient x1="221.47273" y1="183.06662" x2="222.96942" y2="182.82828" gradientUnits="userSpaceOnUse" id="color-13"><stop offset="0" stop-color="#00a3ff"/><stop offset="1" stop-color="#201ea5"/></linearGradient><linearGradient x1="222.9547" y1="182.83063" x2="224.4514" y2="182.59229" gradientUnits="userSpaceOnUse" id="color-14"><stop offset="0" stop-color="#0052cc"/><stop offset="1" stop-color="#33b4ff"/></linearGradient><linearGradient x1="222.26616" y1="188.04911" x2="223.76285" y2="187.81077" gradientUnits="userSpaceOnUse" id="color-15"><stop offset="0" stop-color="#33b4ff"/><stop offset="1" stop-color="#0052cc"/></linearGradient><linearGradient x1="223.74813" y1="187.81311" x2="225.24483" y2="187.57477" gradientUnits="userSpaceOnUse" id="color-16"><stop offset="0" stop-color="#33b4ff"/><stop offset="1" stop-color="#0052cc"/></linearGradient><linearGradient x1="258.52729" y1="183.06662" x2="257.03061" y2="182.82828" gradientUnits="userSpaceOnUse" id="color-17"><stop offset="0" stop-color="#00a3ff"/><stop offset="1" stop-color="#201ea5"/></linearGradient><linearGradient x1="257.04533" y1="182.83062" x2="255.54863" y2="182.59228" gradientUnits="userSpaceOnUse" id="color-18"><stop offset="0" stop-color="#0052cc"/><stop offset="1" stop-color="#33b4ff"/></linearGradient><linearGradient x1="257.73387" y1="188.0491" x2="256.23717" y2="187.81077" gradientUnits="userSpaceOnUse" id="color-19"><stop offset="0" stop-color="#33b4ff"/><stop offset="1" stop-color="#0052cc"/></linearGradient><linearGradient x1="256.2519" y1="187.81311" x2="254.7552" y2="187.57477" gradientUnits="userSpaceOnUse" id="color-20"><stop offset="0" stop-color="#33b4ff"/><stop offset="1" stop-color="#0052cc"/></linearGradient><radialGradient cx="259.73144" cy="173.06728" r="3.14746" gradientUnits="userSpaceOnUse" id="color-21"><stop offset="0" stop-color="#ffb700"/><stop offset="1" stop-color="#ffb700" stop-opacity="0"/></radialGradient><radialGradient cx="259.73144" cy="173.06728" r="16.63658" gradientUnits="userSpaceOnUse" id="color-22"><stop offset="0" stop-color="#ffb700"/><stop offset="1" stop-color="#ffb700" stop-opacity="0"/></radialGradient><radialGradient cx="259.73144" cy="173.06728" r="16.6366" gradientUnits="userSpaceOnUse" id="color-23"><stop offset="0" stop-color="#ffb700"/><stop offset="1" stop-color="#ffb700" stop-opacity="0"/></radialGradient></defs><g transform="translate(-190,-130)"><g data-paper-data="{&quot;isPaintingLayer&quot;:true}" fill-rule="nonzero" stroke-width="0" stroke-linecap="butt" stroke-linejoin="miter" stroke-miterlimit="10" stroke-dasharray="" stroke-dashoffset="0" style="mix-blend-mode: normal"><path d="M208.003,211.99732v-63.99435h63.99435v63.99435z" fill="#ffffff" stroke="#000000"/><g stroke="#000000"><g fill="url(#color-1)"><path d="M271.99714,211.99727h-63.99435v-12.39435h63.99435z"/></g><g fill="url(#color-2)"><path d="M271.99723,148.00285v63.99435h-12.39435v-63.99435z"/></g><g fill="url(#color-3)"><path d="M208.00286,148.00276h63.99435v12.39435h-63.99435z"/></g><g fill="url(#color-4)"><path d="M208.00283,211.9972v-63.99435h12.39435v63.99435z"/></g></g><g stroke="#404040"><path d="M248.75533,166.39024c0,0 0.87147,2.26113 1.90307,3.57067c1.0316,1.30954 2.8047,2.40547 2.8047,2.40547c0,0 1.61201,-0.40185 2.69988,-0.56148c1.08787,-0.15963 2.72126,-0.23397 2.72126,-0.23397l-2.40693,11.87257c0,0 -9.45838,-2.56467 -11.91867,-4.73781c-2.20917,-1.95134 -3.9436,-6.83827 -3.9436,-6.83827c0,0 3.04593,-1.01477 4.55727,-2.02014c1.51134,-1.00537 3.58302,-3.45706 3.58302,-3.45706z" fill="url(#color-5)"/><path d="M239.96066,164.1891c0,0 2.13815,4.93713 4.011,7.76983c1.87285,2.8327 4.33128,4.84797 4.33128,4.84797c0,0 3.94839,-0.14951 6.58036,-1.2618c2.63196,-1.11229 4.00095,-4.0433 4.00095,-4.0433l-3.66576,21.96899c0,0 -4.58095,1.49652 -7.60461,1.95925c-3.02366,0.46273 -7.64223,0.37408 -7.64223,0.37408z" fill="url(#color-6)"/><path d="M234.82771,169.8473c1.51134,1.00537 4.55727,2.02014 4.55727,2.02014c0,0 -1.73443,4.88693 -3.9436,6.83827c-2.46028,2.17314 -11.91867,4.73781 -11.91867,4.73781l-2.40692,-11.87257c0,0 1.63338,0.07434 2.72125,0.23397c1.08787,0.15963 2.69988,0.56148 2.69988,0.56148c0,0 1.7731,-1.09594 2.8047,-2.40547c1.0316,-1.30954 1.90307,-3.57067 1.90307,-3.57067c0,0 2.07168,2.45169 3.58302,3.45706z" data-paper-data="{&quot;index&quot;:null}" fill="url(#color-7)"/><path d="M240.02839,195.80412c0,0 -4.61857,0.08865 -7.64223,-0.37408c-3.02366,-0.46273 -7.60461,-1.95925 -7.60461,-1.95925l-3.66575,-21.96899c0,0 1.36898,2.93101 4.00094,4.0433c2.63197,1.11229 6.58036,1.2618 6.58036,1.2618c0,0 2.45843,-2.01527 4.33128,-4.84797c1.87285,-2.8327 4.011,-7.76983 4.011,-7.76983z" data-paper-data="{&quot;index&quot;:null}" fill="url(#color-8)"/></g><g stroke="#404040"><path d="M240.01883,187.31774l-3.82692,-1.29892l3.82692,-5.73236z" fill="url(#color-9)"/><path d="M239.98119,180.28647l3.82692,5.73236l-3.82692,1.29892z" data-paper-data="{&quot;index&quot;:null}" fill="url(#color-10)"/><path d="M236.19191,185.98119l3.82692,1.30555v4.42681z" data-paper-data="{&quot;index&quot;:null}" fill="url(#color-11)"/><path d="M239.98119,187.28674l3.82692,-1.30555l-3.82692,5.73236z" data-paper-data="{&quot;index&quot;:null}" fill="url(#color-12)"/></g><g stroke="#404040"><path d="M223.5223,186.30018l-1.70097,-1.04441l0.59521,-5.89938z" fill="url(#color-13)"/><path d="M222.40182,179.35873l2.39818,5.4227l-1.29242,1.52109z" data-paper-data="{&quot;index&quot;:null}" fill="url(#color-14)"/><path d="M221.81542,185.21859l1.70201,1.05097l0.69617,4.37173z" data-paper-data="{&quot;index&quot;:null}" fill="url(#color-15)"/><path d="M223.5027,186.2719l1.29138,-1.52764l-0.59521,5.89938z" data-paper-data="{&quot;index&quot;:null}" fill="url(#color-16)"/></g><g data-paper-data="{&quot;index&quot;:null}" stroke="#404040"><path d="M257.58348,179.35638l0.59521,5.89938l-1.70096,1.04441z" fill="url(#color-17)"/><path d="M256.49244,186.30252l-1.29242,-1.52109l2.39818,-5.4227z" data-paper-data="{&quot;index&quot;:null}" fill="url(#color-18)"/><path d="M255.78643,190.64129l0.69617,-4.37174l1.70201,-1.05096z" data-paper-data="{&quot;index&quot;:null}" fill="url(#color-19)"/><path d="M255.80115,190.64363l-0.59521,-5.89938l1.29138,1.52765z" data-paper-data="{&quot;index&quot;:null}" fill="url(#color-20)"/></g><g stroke="#000000"><path d="M257.50586,170.84169c1.22916,-1.22916 3.22203,-1.22916 4.45119,0c1.22916,1.22916 1.22916,3.22203 0,4.45119c-1.22916,1.22916 -3.22203,1.22916 -4.45119,0c-1.22916,-1.22916 -1.22916,-3.22203 0,-4.45119z" fill="url(#color-21)"/><path d="M247.96758,161.30344c0.12194,-0.12194 5.48764,5.04605 11.98464,11.54305c6.49699,6.49699 11.66499,11.86269 11.54305,11.98464c-0.12194,0.12194 -5.48764,-5.04605 -11.98464,-11.54305c-6.49699,-6.49699 -11.66499,-11.86269 -11.54305,-11.98464z" fill="url(#color-22)"/><path d="M247.96758,184.83114c-0.12194,-0.12194 5.04605,-5.48764 11.54306,-11.98464c6.49699,-6.49699 11.86269,-11.66499 11.98464,-11.54306c0.12194,0.12194 -5.04605,5.48764 -11.54306,11.98464c-6.49699,6.49699 -11.86269,11.66499 -11.98464,11.54306z" fill="url(#color-23)"/></g><path d="M190,230v-100h100v100z" fill="none" stroke="#000000"/></g></g></svg>